<?xml version="1.0" standalone="no"?>
<svg xmlns:xlink="http://www.w3.org/1999/xlink" id="wave" style="transform:rotate(180deg); transition: 0.3s" viewBox="0 0 1440 100" version="1.1" xmlns="http://www.w3.org/2000/svg"><defs><linearGradient id="sw-gradient-0" x1="0" x2="0" y1="1" y2="0"><stop stop-color="rgba(255, 249, 234, 1)" offset="0%"/><stop stop-color="rgba(255, 249, 234, 1)" offset="100%"/></linearGradient></defs><path style="transform:translate(0, 0px); opacity:1" fill="url(#sw-gradient-0)" d="M0,20L80,16.7C160,13,320,7,480,18.3C640,30,800,60,960,65C1120,70,1280,50,1440,43.3C1600,37,1760,43,1920,45C2080,47,2240,43,2400,38.3C2560,33,2720,27,2880,26.7C3040,27,3200,33,3360,38.3C3520,43,3680,47,3840,45C4000,43,4160,37,4320,41.7C4480,47,4640,63,4800,66.7C4960,70,5120,60,5280,48.3C5440,37,5600,23,5760,21.7C5920,20,6080,30,6240,41.7C6400,53,6560,67,6720,75C6880,83,7040,87,7200,80C7360,73,7520,57,7680,46.7C7840,37,8000,33,8160,26.7C8320,20,8480,10,8640,5C8800,0,8960,0,9120,10C9280,20,9440,40,9600,40C9760,40,9920,20,10080,13.3C10240,7,10400,13,10560,26.7C10720,40,10880,60,11040,58.3C11200,57,11360,33,11440,21.7L11520,10L11520,100L11440,100C11360,100,11200,100,11040,100C10880,100,10720,100,10560,100C10400,100,10240,100,10080,100C9920,100,9760,100,9600,100C9440,100,9280,100,9120,100C8960,100,8800,100,8640,100C8480,100,8320,100,8160,100C8000,100,7840,100,7680,100C7520,100,7360,100,7200,100C7040,100,6880,100,6720,100C6560,100,6400,100,6240,100C6080,100,5920,100,5760,100C5600,100,5440,100,5280,100C5120,100,4960,100,4800,100C4640,100,4480,100,4320,100C4160,100,4000,100,3840,100C3680,100,3520,100,3360,100C3200,100,3040,100,2880,100C2720,100,2560,100,2400,100C2240,100,2080,100,1920,100C1760,100,1600,100,1440,100C1280,100,1120,100,960,100C800,100,640,100,480,100C320,100,160,100,80,100L0,100Z"/></svg>